<svg width="789" height="954" viewBox="0 0 789 954" fill="none" xmlns="http://www.w3.org/2000/svg">
<g filter="url(#filter0_di_2010_124)">
<path d="M233.237 950.359L174.432 799.181C174.349 798.967 174.117 798.843 173.876 798.883L3.06988 827.321C2.64119 827.392 2.33323 826.964 2.55605 826.607L216.388 483.689C216.534 483.455 216.85 483.37 217.093 483.5L332.455 545.168L447.816 606.836C448.06 606.966 448.139 607.262 447.993 607.496L234.161 950.414C233.938 950.771 233.384 950.738 233.237 950.359Z" fill="url(#paint0_linear_2010_124)"/>
</g>
<g filter="url(#filter1_di_2010_124)">
<path d="M719.459 827.53L548.653 799.092C548.412 799.052 548.179 799.176 548.096 799.39L489.292 950.568C489.145 950.947 488.591 950.98 488.368 950.623L274.536 607.705C274.39 607.471 274.469 607.175 274.712 607.045L390.074 545.377L505.435 483.709C505.679 483.579 505.995 483.664 506.141 483.898L719.973 826.816C720.196 827.173 719.888 827.601 719.459 827.53Z" fill="url(#paint1_linear_2010_124)"/>
</g>
<path d="M677.244 246.736C677.056 246.637 676.95 246.431 676.979 246.221C677.81 240.292 678.243 234.364 678.243 228.469C678.243 145.911 598.019 79.6436 508.911 90.6654C508.716 90.6896 508.522 90.5971 508.419 90.4288C482.368 47.7453 432.929 20 378.035 20C323.14 20 273.701 47.7453 247.65 90.4289C247.547 90.5971 247.354 90.6896 247.158 90.6655C157.864 79.6432 77.8263 145.911 77.8263 228.469C77.8263 234.364 78.2594 240.292 79.0901 246.221C79.1196 246.431 79.0131 246.637 78.8252 246.736C32.7338 270.892 2.77423 316.663 2.77423 367.449C2.77423 418.234 32.7336 464.005 78.8247 488.161C79.0128 488.26 79.1193 488.467 79.0896 488.677C78.257 494.562 77.8351 500.492 77.8263 506.428C77.8263 588.986 157.864 655.081 247.159 644.231C247.354 644.207 247.547 644.3 247.65 644.468C273.7 687.151 323.14 714.897 378.035 714.897C432.929 714.897 482.369 687.151 508.419 644.468C508.522 644.3 508.715 644.207 508.911 644.231C598.019 655.08 678.243 588.986 678.243 506.428C678.243 500.533 677.81 494.605 676.979 488.676C676.95 488.466 677.056 488.26 677.244 488.161C723.335 464.005 753.295 418.234 753.295 367.449C753.295 316.663 723.335 270.892 677.244 246.736Z" fill="url(#paint2_linear_2010_124)"/>
<g filter="url(#filter2_di_2010_124)">
<path d="M378.59 223.754C378.715 223.397 379.22 223.397 379.345 223.754L415.934 328.018C415.99 328.179 416.142 328.286 416.312 328.286H534.648C535.043 328.286 535.199 328.797 534.871 329.018L439.189 393.383C439.038 393.484 438.975 393.675 439.035 393.847L475.595 498.026C475.722 498.389 475.313 498.705 474.994 498.49L379.191 434.044C379.056 433.953 378.879 433.953 378.744 434.044L282.941 498.49C282.621 498.705 282.213 498.389 282.34 498.026L318.899 393.847C318.96 393.675 318.896 393.484 318.745 393.382L223.064 329.018C222.736 328.797 222.892 328.286 223.287 328.286H341.623C341.793 328.286 341.944 328.179 342 328.018L378.59 223.754Z" fill="url(#paint3_linear_2010_124)"/>
</g>
<g filter="url(#filter3_di_2010_124)">
<path d="M268.237 930.359L209.432 779.181C209.349 778.967 209.117 778.843 208.876 778.883L38.0699 807.321C37.6412 807.392 37.3332 806.965 37.556 806.607L251.388 463.689C251.534 463.455 251.85 463.37 252.093 463.5L367.455 525.168L482.816 586.836C483.06 586.966 483.139 587.262 482.993 587.496L269.161 930.414C268.938 930.771 268.384 930.738 268.237 930.359Z" fill="url(#paint4_linear_2010_124)" shape-rendering="crispEdges"/>
</g>
<g filter="url(#filter4_di_2010_124)">
<path d="M754.459 807.53L583.653 779.092C583.412 779.052 583.179 779.176 583.096 779.39L524.292 930.568C524.145 930.947 523.591 930.98 523.368 930.623L309.536 587.705C309.39 587.471 309.469 587.175 309.712 587.045L425.074 525.377L540.435 463.709C540.679 463.579 540.995 463.664 541.141 463.898L754.973 806.816C755.196 807.173 754.888 807.601 754.459 807.53Z" fill="url(#paint5_linear_2010_124)" shape-rendering="crispEdges"/>
</g>
<path d="M712.244 226.736C712.056 226.637 711.95 226.431 711.979 226.221C712.81 220.292 713.243 214.364 713.243 208.469C713.243 125.911 633.019 59.6436 543.911 70.6654C543.716 70.6896 543.522 70.5971 543.419 70.4288C517.368 27.7453 467.929 0 413.035 0C358.14 0 308.701 27.7453 282.65 70.4289C282.547 70.5971 282.354 70.6896 282.158 70.6655C192.864 59.6432 112.826 125.911 112.826 208.469C112.826 214.364 113.259 220.292 114.09 226.221C114.12 226.431 114.013 226.637 113.825 226.736C67.7338 250.892 37.7743 296.663 37.7743 347.449C37.7743 398.234 67.7336 444.005 113.825 468.161C114.013 468.26 114.119 468.467 114.09 468.677C113.257 474.562 112.835 480.492 112.826 486.428C112.826 568.986 192.864 635.081 282.159 624.231C282.354 624.207 282.547 624.3 282.65 624.468C308.7 667.151 358.14 694.897 413.035 694.897C467.929 694.897 517.369 667.151 543.419 624.468C543.522 624.3 543.715 624.207 543.911 624.231C633.019 635.08 713.243 568.986 713.243 486.428C713.243 480.533 712.81 474.605 711.979 468.676C711.95 468.466 712.056 468.26 712.244 468.161C758.335 444.005 788.295 398.234 788.295 347.449C788.295 296.663 758.335 250.892 712.244 226.736Z" fill="url(#paint6_linear_2010_124)"/>
<g filter="url(#filter5_di_2010_124)">
<path d="M413.59 203.754C413.715 203.397 414.22 203.397 414.345 203.754L450.934 308.018C450.99 308.179 451.142 308.286 451.312 308.286H569.648C570.043 308.286 570.199 308.797 569.871 309.018L474.189 373.383C474.038 373.484 473.975 373.675 474.035 373.847L510.595 478.026C510.722 478.389 510.313 478.705 509.994 478.49L414.191 414.044C414.056 413.953 413.879 413.953 413.744 414.044L317.941 478.49C317.621 478.705 317.213 478.389 317.34 478.026L353.899 373.847C353.96 373.675 353.896 373.484 353.745 373.383L258.064 309.018C257.736 308.797 257.892 308.286 258.287 308.286H376.623C376.793 308.286 376.944 308.179 377 308.018L413.59 203.754Z" fill="url(#paint7_linear_2010_124)" shape-rendering="crispEdges"/>
</g>
<defs>
<filter id="filter0_di_2010_124" x="0.981537" y="482.939" width="448.585" height="471.725" filterUnits="userSpaceOnUse" color-interpolation-filters="sRGB">
<feFlood flood-opacity="0" result="BackgroundImageFix"/>
<feColorMatrix in="SourceAlpha" type="matrix" values="0 0 0 0 0 0 0 0 0 0 0 0 0 0 0 0 0 0 127 0" result="hardAlpha"/>
<feOffset dy="1"/>
<feGaussianBlur stdDeviation="0.75"/>
<feComposite in2="hardAlpha" operator="out"/>
<feColorMatrix type="matrix" values="0 0 0 0 0 0 0 0 0 0 0 0 0 0 0 0 0 0 0.25 0"/>
<feBlend mode="normal" in2="BackgroundImageFix" result="effect1_dropShadow_2010_124"/>
<feBlend mode="normal" in="SourceGraphic" in2="effect1_dropShadow_2010_124" result="shape"/>
<feColorMatrix in="SourceAlpha" type="matrix" values="0 0 0 0 0 0 0 0 0 0 0 0 0 0 0 0 0 0 127 0" result="hardAlpha"/>
<feOffset dy="8"/>
<feGaussianBlur stdDeviation="2"/>
<feComposite in2="hardAlpha" operator="arithmetic" k2="-1" k3="1"/>
<feColorMatrix type="matrix" values="0 0 0 0 1 0 0 0 0 1 0 0 0 0 1 0 0 0 0.25 0"/>
<feBlend mode="normal" in2="shape" result="effect2_innerShadow_2010_124"/>
</filter>
<filter id="filter1_di_2010_124" x="272.963" y="483.148" width="448.585" height="471.725" filterUnits="userSpaceOnUse" color-interpolation-filters="sRGB">
<feFlood flood-opacity="0" result="BackgroundImageFix"/>
<feColorMatrix in="SourceAlpha" type="matrix" values="0 0 0 0 0 0 0 0 0 0 0 0 0 0 0 0 0 0 127 0" result="hardAlpha"/>
<feOffset dy="1"/>
<feGaussianBlur stdDeviation="0.75"/>
<feComposite in2="hardAlpha" operator="out"/>
<feColorMatrix type="matrix" values="0 0 0 0 0 0 0 0 0 0 0 0 0 0 0 0 0 0 0.25 0"/>
<feBlend mode="normal" in2="BackgroundImageFix" result="effect1_dropShadow_2010_124"/>
<feBlend mode="normal" in="SourceGraphic" in2="effect1_dropShadow_2010_124" result="shape"/>
<feColorMatrix in="SourceAlpha" type="matrix" values="0 0 0 0 0 0 0 0 0 0 0 0 0 0 0 0 0 0 127 0" result="hardAlpha"/>
<feOffset dy="8"/>
<feGaussianBlur stdDeviation="2"/>
<feComposite in2="hardAlpha" operator="arithmetic" k2="-1" k3="1"/>
<feColorMatrix type="matrix" values="0 0 0 0 1 0 0 0 0 1 0 0 0 0 1 0 0 0 0.25 0"/>
<feBlend mode="normal" in2="shape" result="effect2_innerShadow_2010_124"/>
</filter>
<filter id="filter2_di_2010_124" x="221.386" y="222.986" width="315.162" height="279.574" filterUnits="userSpaceOnUse" color-interpolation-filters="sRGB">
<feFlood flood-opacity="0" result="BackgroundImageFix"/>
<feColorMatrix in="SourceAlpha" type="matrix" values="0 0 0 0 0 0 0 0 0 0 0 0 0 0 0 0 0 0 127 0" result="hardAlpha"/>
<feOffset dy="1"/>
<feGaussianBlur stdDeviation="0.75"/>
<feComposite in2="hardAlpha" operator="out"/>
<feColorMatrix type="matrix" values="0 0 0 0 0 0 0 0 0 0 0 0 0 0 0 0 0 0 0.25 0"/>
<feBlend mode="normal" in2="BackgroundImageFix" result="effect1_dropShadow_2010_124"/>
<feBlend mode="normal" in="SourceGraphic" in2="effect1_dropShadow_2010_124" result="shape"/>
<feColorMatrix in="SourceAlpha" type="matrix" values="0 0 0 0 0 0 0 0 0 0 0 0 0 0 0 0 0 0 127 0" result="hardAlpha"/>
<feOffset dy="8"/>
<feGaussianBlur stdDeviation="2"/>
<feComposite in2="hardAlpha" operator="arithmetic" k2="-1" k3="1"/>
<feColorMatrix type="matrix" values="0 0 0 0 1 0 0 0 0 1 0 0 0 0 1 0 0 0 0.25 0"/>
<feBlend mode="normal" in2="shape" result="effect2_innerShadow_2010_124"/>
</filter>
<filter id="filter3_di_2010_124" x="35.9815" y="462.939" width="448.585" height="471.725" filterUnits="userSpaceOnUse" color-interpolation-filters="sRGB">
<feFlood flood-opacity="0" result="BackgroundImageFix"/>
<feColorMatrix in="SourceAlpha" type="matrix" values="0 0 0 0 0 0 0 0 0 0 0 0 0 0 0 0 0 0 127 0" result="hardAlpha"/>
<feOffset dy="1"/>
<feGaussianBlur stdDeviation="0.75"/>
<feComposite in2="hardAlpha" operator="out"/>
<feColorMatrix type="matrix" values="0 0 0 0 0 0 0 0 0 0 0 0 0 0 0 0 0 0 0.25 0"/>
<feBlend mode="normal" in2="BackgroundImageFix" result="effect1_dropShadow_2010_124"/>
<feBlend mode="normal" in="SourceGraphic" in2="effect1_dropShadow_2010_124" result="shape"/>
<feColorMatrix in="SourceAlpha" type="matrix" values="0 0 0 0 0 0 0 0 0 0 0 0 0 0 0 0 0 0 127 0" result="hardAlpha"/>
<feOffset dy="8"/>
<feGaussianBlur stdDeviation="2"/>
<feComposite in2="hardAlpha" operator="arithmetic" k2="-1" k3="1"/>
<feColorMatrix type="matrix" values="0 0 0 0 1 0 0 0 0 1 0 0 0 0 1 0 0 0 0.25 0"/>
<feBlend mode="normal" in2="shape" result="effect2_innerShadow_2010_124"/>
</filter>
<filter id="filter4_di_2010_124" x="307.963" y="463.148" width="448.585" height="471.725" filterUnits="userSpaceOnUse" color-interpolation-filters="sRGB">
<feFlood flood-opacity="0" result="BackgroundImageFix"/>
<feColorMatrix in="SourceAlpha" type="matrix" values="0 0 0 0 0 0 0 0 0 0 0 0 0 0 0 0 0 0 127 0" result="hardAlpha"/>
<feOffset dy="1"/>
<feGaussianBlur stdDeviation="0.75"/>
<feComposite in2="hardAlpha" operator="out"/>
<feColorMatrix type="matrix" values="0 0 0 0 0 0 0 0 0 0 0 0 0 0 0 0 0 0 0.25 0"/>
<feBlend mode="normal" in2="BackgroundImageFix" result="effect1_dropShadow_2010_124"/>
<feBlend mode="normal" in="SourceGraphic" in2="effect1_dropShadow_2010_124" result="shape"/>
<feColorMatrix in="SourceAlpha" type="matrix" values="0 0 0 0 0 0 0 0 0 0 0 0 0 0 0 0 0 0 127 0" result="hardAlpha"/>
<feOffset dy="8"/>
<feGaussianBlur stdDeviation="2"/>
<feComposite in2="hardAlpha" operator="arithmetic" k2="-1" k3="1"/>
<feColorMatrix type="matrix" values="0 0 0 0 1 0 0 0 0 1 0 0 0 0 1 0 0 0 0.25 0"/>
<feBlend mode="normal" in2="shape" result="effect2_innerShadow_2010_124"/>
</filter>
<filter id="filter5_di_2010_124" x="256.386" y="202.986" width="315.162" height="279.574" filterUnits="userSpaceOnUse" color-interpolation-filters="sRGB">
<feFlood flood-opacity="0" result="BackgroundImageFix"/>
<feColorMatrix in="SourceAlpha" type="matrix" values="0 0 0 0 0 0 0 0 0 0 0 0 0 0 0 0 0 0 127 0" result="hardAlpha"/>
<feOffset dy="1"/>
<feGaussianBlur stdDeviation="0.75"/>
<feComposite in2="hardAlpha" operator="out"/>
<feColorMatrix type="matrix" values="0 0 0 0 0 0 0 0 0 0 0 0 0 0 0 0 0 0 0.25 0"/>
<feBlend mode="normal" in2="BackgroundImageFix" result="effect1_dropShadow_2010_124"/>
<feBlend mode="normal" in="SourceGraphic" in2="effect1_dropShadow_2010_124" result="shape"/>
<feColorMatrix in="SourceAlpha" type="matrix" values="0 0 0 0 0 0 0 0 0 0 0 0 0 0 0 0 0 0 127 0" result="hardAlpha"/>
<feOffset dy="8"/>
<feGaussianBlur stdDeviation="2"/>
<feComposite in2="hardAlpha" operator="arithmetic" k2="-1" k3="1"/>
<feColorMatrix type="matrix" values="0 0 0 0 1 0 0 0 0 1 0 0 0 0 1 0 0 0 0.25 0"/>
<feBlend mode="normal" in2="shape" result="effect2_innerShadow_2010_124"/>
</filter>
<linearGradient id="paint0_linear_2010_124" x1="136.557" y1="808.61" x2="313.391" y2="568.595" gradientUnits="userSpaceOnUse">
<stop stop-color="#E8FC6B"/>
<stop offset="1" stop-color="#CA10E9"/>
</linearGradient>
<linearGradient id="paint1_linear_2010_124" x1="418.041" y1="550.018" x2="559.969" y2="899.176" gradientUnits="userSpaceOnUse">
<stop stop-color="#FFE353"/>
<stop offset="1" stop-color="#8900F5"/>
</linearGradient>
<linearGradient id="paint2_linear_2010_124" x1="378.035" y1="20" x2="378.035" y2="714.897" gradientUnits="userSpaceOnUse">
<stop stop-color="#8900F5"/>
<stop offset="1" stop-color="#FFE353"/>
</linearGradient>
<linearGradient id="paint3_linear_2010_124" x1="378.967" y1="222.678" x2="378.967" y2="528.352" gradientUnits="userSpaceOnUse">
<stop stop-color="#FFE353"/>
<stop offset="1" stop-color="#8900F5"/>
</linearGradient>
<linearGradient id="paint4_linear_2010_124" x1="-19.206" y1="823.351" x2="486.66" y2="815.826" gradientUnits="userSpaceOnUse">
<stop stop-color="white" stop-opacity="0.2"/>
<stop offset="1" stop-color="white" stop-opacity="0.5"/>
</linearGradient>
<linearGradient id="paint5_linear_2010_124" x1="510.648" y1="984.509" x2="729.762" y2="561.258" gradientUnits="userSpaceOnUse">
<stop stop-color="white" stop-opacity="0.2"/>
<stop offset="1" stop-color="white" stop-opacity="0.5"/>
</linearGradient>
<linearGradient id="paint6_linear_2010_124" x1="-74.8038" y1="764.387" x2="724.694" y2="-61.5642" gradientUnits="userSpaceOnUse">
<stop stop-color="white" stop-opacity="0.2"/>
<stop offset="1" stop-color="white" stop-opacity="0.5"/>
</linearGradient>
<linearGradient id="paint7_linear_2010_124" x1="199.375" y1="538.919" x2="551.061" y2="175.597" gradientUnits="userSpaceOnUse">
<stop stop-color="white" stop-opacity="0.2"/>
<stop offset="1" stop-color="white" stop-opacity="0.5"/>
</linearGradient>
</defs>
</svg>
