<svg width="1080" height="1080" viewBox="0 0 1080 1080" fill="none" xmlns="http://www.w3.org/2000/svg">
<path d="M495.546 513.877L204.189 555.965C186.005 558.581 169.629 569.934 159.991 586.574L79.5845 725.395C54.8056 768.175 85.7961 819.036 132.557 812.286L382.008 776.223L474.85 1010.55C492.263 1054.47 551.801 1056.04 576.58 1013.26L656.986 874.439C666.624 857.799 668.323 837.944 661.544 820.869L553.077 547.199C543.773 523.74 520.471 510.243 495.546 513.877Z" fill="url(#paint0_linear_2009_5)"/>
<path d="M600.916 114.862L762.453 81.3501C782.762 77.1368 802.87 89.3489 808.496 109.313L850.906 259.81C853.801 270.082 852.416 281.087 847.068 290.322L577.524 755.686C566.59 774.564 542.423 781.003 523.546 770.069L320.094 652.228C301.217 641.294 294.777 617.127 305.711 598.25L574.759 133.741C580.394 124.012 589.908 117.146 600.916 114.862Z" fill="url(#paint1_linear_2009_5)" stroke="url(#paint2_linear_2009_5)"/>
<g filter="url(#filter0_bd_2009_5)">
<path d="M583.517 483.233L298.459 517.997C280.668 520.156 264.9 530.921 255.903 547.019L180.84 681.319C157.708 722.707 189.597 773.26 235.346 767.686L479.404 737.894L577.259 969.684C595.612 1013.13 654.151 1016 677.283 974.612L752.346 840.312C761.343 824.214 762.45 804.787 755.306 787.896L640.984 517.184C631.178 493.978 607.902 480.227 583.517 483.233Z" fill="url(#paint3_linear_2009_5)" shape-rendering="crispEdges"/>
<path d="M583.697 483.729L583.698 483.728C607.877 480.748 630.849 494.366 640.528 517.27L754.85 787.983C761.919 804.697 760.842 823.979 751.892 839.992L676.83 974.293C665.325 994.877 645.029 1004.43 625.377 1003.46C605.743 1002.5 586.778 991.05 577.716 969.598L479.86 737.808L479.665 737.344L479.224 737.398L235.166 767.19C212.482 769.954 193.322 758.815 182.669 741.932C171.998 725.02 169.788 702.224 181.293 681.639L256.356 547.339C265.305 531.327 280.982 520.636 298.639 518.492L298.639 518.492L583.697 483.729Z" stroke="url(#paint4_linear_2009_5)" shape-rendering="crispEdges"/>
</g>
<g filter="url(#filter1_bd_2009_5)">
<path d="M689.981 79.8982L859.83 47.4795C879.978 43.6338 899.77 55.6522 905.65 75.3033L952.579 232.134C955.741 242.701 954.399 254.105 948.871 263.649L675.377 735.833C664.305 754.95 639.832 761.47 620.716 750.398L404.436 625.127C385.32 614.055 378.799 589.582 389.871 570.466L662.867 99.1407C668.685 89.0963 678.579 82.0745 689.981 79.8982Z" fill="url(#paint5_linear_2009_5)" shape-rendering="crispEdges"/>
<path d="M690.075 80.3894L859.924 47.9706C879.82 44.173 899.365 56.0412 905.171 75.4467L952.1 232.277C955.222 242.712 953.897 253.973 948.438 263.398L674.944 735.583C664.01 754.46 639.844 760.899 620.966 749.965L404.687 624.694C385.809 613.76 379.37 589.594 390.304 570.716L663.3 99.3913C669.045 89.4724 678.816 82.5384 690.075 80.3894Z" stroke="url(#paint6_linear_2009_5)" shape-rendering="crispEdges"/>
</g>
<defs>
<filter id="filter0_bd_2009_5" x="169.11" y="478.823" width="594.865" height="533.204" filterUnits="userSpaceOnUse" color-interpolation-filters="sRGB">
<feFlood flood-opacity="0" result="BackgroundImageFix"/>
<feGaussianBlur in="BackgroundImageFix" stdDeviation="2"/>
<feComposite in2="SourceAlpha" operator="in" result="effect1_backgroundBlur_2009_5"/>
<feColorMatrix in="SourceAlpha" type="matrix" values="0 0 0 0 0 0 0 0 0 0 0 0 0 0 0 0 0 0 127 0" result="hardAlpha"/>
<feOffset dy="4"/>
<feGaussianBlur stdDeviation="2"/>
<feComposite in2="hardAlpha" operator="out"/>
<feColorMatrix type="matrix" values="0 0 0 0 0 0 0 0 0 0 0 0 0 0 0 0 0 0 0.25 0"/>
<feBlend mode="normal" in2="effect1_backgroundBlur_2009_5" result="effect2_dropShadow_2009_5"/>
<feBlend mode="normal" in="SourceGraphic" in2="effect2_dropShadow_2009_5" result="shape"/>
</filter>
<filter id="filter1_bd_2009_5" x="380.478" y="42.7649" width="577.78" height="721.027" filterUnits="userSpaceOnUse" color-interpolation-filters="sRGB">
<feFlood flood-opacity="0" result="BackgroundImageFix"/>
<feGaussianBlur in="BackgroundImageFix" stdDeviation="2"/>
<feComposite in2="SourceAlpha" operator="in" result="effect1_backgroundBlur_2009_5"/>
<feColorMatrix in="SourceAlpha" type="matrix" values="0 0 0 0 0 0 0 0 0 0 0 0 0 0 0 0 0 0 127 0" result="hardAlpha"/>
<feOffset dy="4"/>
<feGaussianBlur stdDeviation="2"/>
<feComposite in2="hardAlpha" operator="out"/>
<feColorMatrix type="matrix" values="0 0 0 0 0 0 0 0 0 0 0 0 0 0 0 0 0 0 0.25 0"/>
<feBlend mode="normal" in2="effect1_backgroundBlur_2009_5" result="effect2_dropShadow_2009_5"/>
<feBlend mode="normal" in="SourceGraphic" in2="effect2_dropShadow_2009_5" result="shape"/>
</filter>
<linearGradient id="paint0_linear_2009_5" x1="295.514" y1="938.277" x2="511.884" y2="520.35" gradientUnits="userSpaceOnUse">
<stop stop-color="#EA1C39"/>
<stop offset="1" stop-color="#F37322"/>
</linearGradient>
<linearGradient id="paint1_linear_2009_5" x1="793.182" y1="69.9955" x2="421.569" y2="711.581" gradientUnits="userSpaceOnUse">
<stop stop-color="#EA1C39"/>
<stop offset="1" stop-color="#F37322"/>
</linearGradient>
<linearGradient id="paint2_linear_2009_5" x1="493.479" y1="838.915" x2="159.197" y2="324.277" gradientUnits="userSpaceOnUse">
<stop stop-color="white" stop-opacity="0"/>
<stop offset="1" stop-color="white"/>
</linearGradient>
<linearGradient id="paint3_linear_2009_5" x1="125.52" y1="996.816" x2="652.276" y2="436.031" gradientUnits="userSpaceOnUse">
<stop stop-color="white" stop-opacity="0.2"/>
<stop offset="1" stop-color="white" stop-opacity="0.5"/>
</linearGradient>
<linearGradient id="paint4_linear_2009_5" x1="738.356" y1="1069.16" x2="240.535" y2="367.491" gradientUnits="userSpaceOnUse">
<stop stop-color="white" stop-opacity="0"/>
<stop offset="1" stop-color="white"/>
</linearGradient>
<linearGradient id="paint5_linear_2009_5" x1="289.32" y1="645.323" x2="953.821" y2="730.521" gradientUnits="userSpaceOnUse">
<stop stop-color="white" stop-opacity="0.2"/>
<stop offset="1" stop-color="white" stop-opacity="0.5"/>
</linearGradient>
<linearGradient id="paint6_linear_2009_5" x1="589.101" y1="818.959" x2="248.498" y2="279.232" gradientUnits="userSpaceOnUse">
<stop stop-color="white" stop-opacity="0"/>
<stop offset="1" stop-color="white"/>
</linearGradient>
</defs>
</svg>
