{
  "accessors": [
    {
      "bufferView": 2,
      "componentType": 5126,
      "count": 2266,
      "max": [
        0.2281336635351181,
        0.13334600627422333,
        0.11794924736022949
      ],
      "min": [
        -0.2281336635351181,
        -0.03921930491924286,
        -0.14615538716316223
      ],
      "type": "VEC3"
    },
    {
      "bufferView": 2,
      "byteOffset": 27192,
      "componentType": 5126,
      "count": 2266,
      "max": [
        0.9999870657920837,
        0.9992970824241638,
        0.9851611256599426
      ],
      "min": [
        -0.9998965859413147,
        -0.998924732208252,
        -0.9977608323097229
      ],
      "type": "VEC3"
    },
    {
      "bufferView": 1,
      "componentType": 5126,
      "count": 2266,
      "max": [
        0.9945345520973206,
        1.0004860162734985
      ],
      "min": [
        2.246350049972534e-06,
        0.03604698181152344
      ],
      "type": "VEC2"
    },
    {
      "bufferView": 0,
      "componentType": 5125,
      "count": 9690,
      "type": "SCALAR"
    },
    {
      "bufferView": 2,
      "byteOffset": 54384,
      "componentType": 5126,
      "count": 600,
      "max": [
        0.18419988453388214,
        0.10620267689228058,
        0.14615538716316223
      ],
      "min": [
        -0.1362762749195099,
        -0.13334600627422333,
        -0.13172276318073273
      ],
      "type": "VEC3"
    },
    {
      "bufferView": 2,
      "byteOffset": 61584,
      "componentType": 5126,
      "count": 600,
      "max": [
        0.9259513020515442,
        0.8959624767303467,
        0.9025699496269226
      ],
      "min": [
        -0.9239863157272339,
        -0.9839433431625366,
        -0.9097365140914917
      ],
      "type": "VEC3"
    },
    {
      "bufferView": 1,
      "byteOffset": 18128,
      "componentType": 5126,
      "count": 600,
      "max": [
        0.9855783581733704,
        0.9836408495903015
      ],
      "min": [
        0.03408241271972656,
        0.014125424437224865
      ],
      "type": "VEC2"
    },
    {
      "bufferView": 0,
      "byteOffset": 38760,
      "componentType": 5125,
      "count": 2148,
      "type": "SCALAR"
    }
  ],
  "asset": {
    "extras": {
      "author": "joaobaltieri (https://sketchfab.com/joaobaltieri)",
      "license": "CC-BY-4.0 (http://creativecommons.org/licenses/by/4.0/)",
      "source": "https://sketchfab.com/3d-models/paladins-book-ancient-knights-secrets-07bc6364101c4bd4adaa3d0cee1aaa3e",
      "title": "Paladin's Book | Ancient Knight's Secrets"
    },
    "generator": "Sketchfab-12.68.0",
    "version": "2.0"
  },
  "bufferViews": [
    {
      "buffer": 0,
      "byteLength": 47352,
      "name": "floatBufferViews",
      "target": 34963
    },
    {
      "buffer": 0,
      "byteLength": 22928,
      "byteOffset": 47352,
      "byteStride": 8,
      "name": "floatBufferViews",
      "target": 34962
    },
    {
      "buffer": 0,
      "byteLength": 68784,
      "byteOffset": 70280,
      "byteStride": 12,
      "name": "floatBufferViews",
      "target": 34962
    }
  ],
  "buffers": [
    {
      "byteLength": 139064,
      "uri": "scene.bin"
    }
  ],
  "images": [
    {
      "uri": "textures/paladins_book_baseColor.png"
    },
    {
      "uri": "textures/paladins_book_emissive.png"
    },
    {
      "uri": "textures/paladin_pages_baseColor.png"
    },
    {
      "uri": "textures/paladin_pages_emissive.png"
    }
  ],
  "materials": [
    {
      "doubleSided": true,
      "emissiveFactor": [
        1.0,
        1.0,
        1.0
      ],
      "emissiveTexture": {
        "index": 1
      },
      "name": "paladins_book",
      "pbrMetallicRoughness": {
        "baseColorTexture": {
          "index": 0
        },
        "metallicFactor": 0.0,
        "roughnessFactor": 0.8334830026596557
      }
    },
    {
      "alphaMode": "BLEND",
      "doubleSided": true,
      "emissiveFactor": [
        1.0,
        1.0,
        1.0
      ],
      "emissiveTexture": {
        "index": 3
      },
      "name": "paladin_pages",
      "pbrMetallicRoughness": {
        "baseColorTexture": {
          "index": 2
        },
        "metallicFactor": 0.0
      }
    }
  ],
  "meshes": [
    {
      "name": "book_texturing_v2_book_paladins_book_0",
      "primitives": [
        {
          "attributes": {
            "NORMAL": 1,
            "POSITION": 0,
            "TEXCOORD_0": 2
          },
          "indices": 3,
          "material": 0,
          "mode": 4
        }
      ]
    },
    {
      "name": "book_texturing_v2_pages_paladin_pages_0",
      "primitives": [
        {
          "attributes": {
            "NORMAL": 5,
            "POSITION": 4,
            "TEXCOORD_0": 6
          },
          "indices": 7,
          "material": 1,
          "mode": 4
        }
      ]
    }
  ],
  "nodes": [
    {
      "children": [
        1
      ],
      "matrix": [
        1.0,
        0.0,
        0.0,
        0.0,
        0.0,
        2.220446049250313e-16,
        -1.0,
        0.0,
        0.0,
        1.0,
        2.220446049250313e-16,
        0.0,
        0.0,
        2.410736332780776e-10,
        -1.828061146902371e-09,
        1.0
      ],
      "name": "Sketchfab_model"
    },
    {
      "children": [
        2
      ],
      "matrix": [
        1.0,
        0.0,
        0.0,
        0.0,
        0.0,
        0.0,
        1.0,
        0.0,
        0.0,
        -1.0,
        0.0,
        0.0,
        0.0,
        0.0,
        0.0,
        1.0
      ],
      "name": "92c9cb85b8024f4aade34c5cb0149086.fbx"
    },
    {
      "children": [
        3,
        5
      ],
      "name": "RootNode"
    },
    {
      "children": [
        4
      ],
      "matrix": [
        1.0,
        0.0,
        0.0,
        0.0,
        0.0,
        -1.6292067939183141e-07,
        -0.9999999999999868,
        0.0,
        0.0,
        0.9999999999999868,
        -1.6292067939183141e-07,
        0.0,
        0.0,
        0.0,
        0.0,
        1.0
      ],
      "name": "book_texturing_v2_book"
    },
    {
      "mesh": 0,
      "name": "book_texturing_v2_book_paladins_book_0"
    },
    {
      "children": [
        6
      ],
      "matrix": [
        1.0,
        0.0,
        0.0,
        0.0,
        0.0,
        -1.6292067939183141e-07,
        -0.9999999999999868,
        0.0,
        0.0,
        0.9999999999999868,
        -1.6292067939183141e-07,
        0.0,
        0.0,
        0.0,
        0.0,
        1.0
      ],
      "name": "book_texturing_v2_pages"
    },
    {
      "mesh": 1,
      "name": "book_texturing_v2_pages_paladin_pages_0"
    }
  ],
  "samplers": [
    {
      "magFilter": 9729,
      "minFilter": 9987,
      "wrapS": 10497,
      "wrapT": 10497
    }
  ],
  "scene": 0,
  "scenes": [
    {
      "name": "Sketchfab_Scene",
      "nodes": [
        0
      ]
    }
  ],
  "textures": [
    {
      "sampler": 0,
      "source": 0
    },
    {
      "sampler": 0,
      "source": 1
    },
    {
      "sampler": 0,
      "source": 2
    },
    {
      "sampler": 0,
      "source": 3
    }
  ]
}
