<svg width="880" height="929" viewBox="0 0 880 929" fill="none" xmlns="http://www.w3.org/2000/svg">
<g filter="url(#filter0_bd_2010_76)">
<path fill-rule="evenodd" clip-rule="evenodd" d="M406.373 53.8806C366.611 35.8406 323.696 27.6905 280.716 30.0171C237.736 32.3437 195.761 45.0891 157.813 67.3358C119.866 89.5824 86.89 120.777 61.2598 158.673C35.6296 196.569 17.9827 240.224 9.58979 286.494C1.19686 332.765 2.26667 380.5 12.7222 426.263C23.1777 472.026 42.7588 514.678 70.0557 551.149C97.3526 587.619 131.686 617 170.584 637.177C209.482 657.354 251.977 667.824 295.01 667.833H644.294C690.612 667.833 735.033 647.662 767.785 611.756C800.537 575.85 818.936 527.151 818.936 476.372C818.936 425.593 800.537 376.894 767.785 340.988C735.033 305.083 690.612 284.911 644.294 284.911C623.32 284.937 602.522 289.091 582.889 297.174C582.588 297.298 582.25 297.107 582.201 296.785C574.156 243.37 553.847 193.074 523.18 150.632C492.392 108.022 452.185 74.6766 406.373 53.8806Z" fill="url(#paint0_linear_2010_76)"/>
</g>
<path d="M264.013 729.884L400.66 922.784C401.88 924.505 403.488 925.907 405.352 926.875C407.215 927.843 409.28 928.349 411.375 928.351L411.406 928.351C413.509 928.347 415.581 927.836 417.449 926.86C419.317 925.884 420.928 924.473 422.147 922.742L557.913 729.841C559.317 727.847 560.149 725.501 560.318 723.06C560.488 720.619 559.988 718.179 558.873 716.006C557.765 713.831 556.083 712.007 554.014 710.735C551.945 709.463 549.568 708.792 547.146 708.797L483.252 708.797L483.257 477.524C483.258 475.774 482.917 474.041 482.254 472.424C481.591 470.807 480.619 469.338 479.393 468.101C478.168 466.864 476.713 465.882 475.112 465.213C473.51 464.545 471.794 464.201 470.062 464.202L351.844 464.208C350.11 464.207 348.394 464.551 346.792 465.221C345.191 465.891 343.735 466.873 342.51 468.111C341.284 469.35 340.313 470.82 339.65 472.437C338.987 474.055 338.647 475.789 338.648 477.54L338.648 708.792L274.733 708.792C269.803 708.792 265.277 711.599 263.001 716.033C261.891 718.212 261.398 720.658 261.576 723.102C261.755 725.546 262.598 727.893 264.013 729.884Z" fill="url(#paint1_linear_2010_76)"/>
<g filter="url(#filter1_f_2010_76)">
<ellipse cx="424.527" cy="348.165" rx="217.316" ry="232.074" fill="url(#paint2_linear_2010_76)"/>
</g>
<g filter="url(#filter2_bd_2010_76)">
<path fill-rule="evenodd" clip-rule="evenodd" d="M463.373 24.2518C423.611 6.2118 380.696 -1.93829 337.716 0.388319C294.736 2.71493 252.761 15.4604 214.813 37.707C176.866 59.9536 143.89 91.1478 118.26 129.044C92.6296 166.94 74.9827 210.595 66.5898 256.865C58.1969 303.136 59.2667 350.871 69.7222 396.634C80.1777 442.397 99.7588 485.049 127.056 521.52C154.353 557.99 188.686 587.371 227.584 607.548C266.482 627.725 308.977 638.195 352.01 638.205H701.294C747.612 638.205 792.033 618.033 824.785 582.127C857.537 546.221 875.936 497.522 875.936 446.743C875.936 395.965 857.537 347.266 824.785 311.36C792.033 275.454 747.612 255.282 701.294 255.282C680.32 255.308 659.522 259.462 639.889 267.545C639.588 267.669 639.25 267.478 639.201 267.156C631.156 213.742 610.846 163.445 580.18 121.003C549.392 78.393 509.185 45.0478 463.373 24.2518Z" fill="url(#paint3_linear_2010_76)" shape-rendering="crispEdges"/>
</g>
<g filter="url(#filter3_bd_2010_76)">
<path d="M309.7 705.661L446.348 898.562C447.568 900.282 449.176 901.685 451.039 902.653C452.902 903.621 454.967 904.127 457.062 904.129L457.094 904.129C459.197 904.124 461.268 903.613 463.137 902.638C465.005 901.662 466.615 900.25 467.835 898.52L603.601 705.619C605.004 703.625 605.836 701.278 606.006 698.838C606.175 696.397 605.675 693.956 604.56 691.784C603.452 689.608 601.771 687.784 599.702 686.512C597.633 685.24 595.256 684.57 592.834 684.575L528.939 684.575L528.944 453.302C528.945 451.551 528.604 449.818 527.941 448.202C527.278 446.585 526.306 445.116 525.081 443.878C523.855 442.641 522.4 441.66 520.799 440.991C519.198 440.322 517.482 439.979 515.749 439.98L397.531 439.985C395.798 439.985 394.081 440.329 392.479 440.999C390.878 441.669 389.423 442.651 388.197 443.889C386.972 445.127 386 446.597 385.337 448.215C384.675 449.833 384.334 451.567 384.336 453.317L384.336 684.569L320.42 684.569C315.49 684.569 310.964 687.377 308.688 691.81C307.578 693.989 307.085 696.436 307.264 698.88C307.442 701.324 308.285 703.67 309.7 705.661Z" fill="url(#paint4_linear_2010_76)" shape-rendering="crispEdges"/>
<path d="M310.108 705.372L310.108 705.372C308.746 703.456 307.934 701.196 307.762 698.843C307.59 696.491 308.065 694.136 309.133 692.038C311.325 687.768 315.682 685.069 320.42 685.069L384.336 685.069L384.836 685.069L384.836 684.569L384.836 453.317C384.834 451.631 385.162 449.962 385.8 448.404C386.438 446.847 387.373 445.432 388.553 444.241C389.732 443.049 391.132 442.104 392.672 441.46C394.213 440.816 395.864 440.485 397.531 440.485L515.749 440.48C517.416 440.479 519.066 440.809 520.606 441.452C522.146 442.096 523.546 443.04 524.725 444.23C525.905 445.421 526.84 446.835 527.479 448.391C528.117 449.948 528.445 451.616 528.444 453.301L528.439 684.575L528.439 685.075L528.939 685.075L592.834 685.075L592.835 685.075C595.164 685.07 597.449 685.715 599.44 686.938C601.43 688.162 603.048 689.917 604.115 692.011L604.116 692.012C605.188 694.103 605.67 696.453 605.507 698.803C605.344 701.153 604.543 703.412 603.192 705.331L467.426 898.232C467.426 898.232 467.426 898.232 467.426 898.232C466.252 899.897 464.702 901.256 462.905 902.194C461.108 903.133 459.116 903.625 457.093 903.629L457.062 903.629C455.047 903.627 453.062 903.14 451.27 902.209C449.477 901.278 447.93 899.929 446.755 898.273L310.108 705.372Z" stroke="url(#paint5_linear_2010_76)" shape-rendering="crispEdges"/>
</g>
<g filter="url(#filter4_bdf_2010_76)">
<ellipse cx="456.809" cy="324.949" rx="217.316" ry="232.074" fill="url(#paint6_linear_2010_76)" shape-rendering="crispEdges"/>
<path d="M673.625 324.949C673.625 452.875 576.523 556.523 456.809 556.523C337.095 556.523 239.992 452.875 239.992 324.949C239.992 197.022 337.095 93.3743 456.809 93.3743C576.523 93.3743 673.625 197.022 673.625 324.949Z" stroke="url(#paint7_linear_2010_76)" shape-rendering="crispEdges"/>
</g>
<defs>
<filter id="filter0_bd_2010_76" x="0" y="25.6288" width="822.936" height="650.205" filterUnits="userSpaceOnUse" color-interpolation-filters="sRGB">
<feFlood flood-opacity="0" result="BackgroundImageFix"/>
<feGaussianBlur in="BackgroundImageFix" stdDeviation="2"/>
<feComposite in2="SourceAlpha" operator="in" result="effect1_backgroundBlur_2010_76"/>
<feColorMatrix in="SourceAlpha" type="matrix" values="0 0 0 0 0 0 0 0 0 0 0 0 0 0 0 0 0 0 127 0" result="hardAlpha"/>
<feOffset dy="4"/>
<feGaussianBlur stdDeviation="2"/>
<feComposite in2="hardAlpha" operator="out"/>
<feColorMatrix type="matrix" values="0 0 0 0 0 0 0 0 0 0 0 0 0 0 0 0 0 0 0.25 0"/>
<feBlend mode="normal" in2="effect1_backgroundBlur_2010_76" result="effect2_dropShadow_2010_76"/>
<feBlend mode="normal" in="SourceGraphic" in2="effect2_dropShadow_2010_76" result="shape"/>
</filter>
<filter id="filter1_f_2010_76" x="183.211" y="92.0906" width="482.633" height="512.149" filterUnits="userSpaceOnUse" color-interpolation-filters="sRGB">
<feFlood flood-opacity="0" result="BackgroundImageFix"/>
<feBlend mode="normal" in="SourceGraphic" in2="BackgroundImageFix" result="shape"/>
<feGaussianBlur stdDeviation="12" result="effect1_foregroundBlur_2010_76"/>
</filter>
<filter id="filter2_bd_2010_76" x="57" y="-4" width="822.936" height="650.205" filterUnits="userSpaceOnUse" color-interpolation-filters="sRGB">
<feFlood flood-opacity="0" result="BackgroundImageFix"/>
<feGaussianBlur in="BackgroundImageFix" stdDeviation="2"/>
<feComposite in2="SourceAlpha" operator="in" result="effect1_backgroundBlur_2010_76"/>
<feColorMatrix in="SourceAlpha" type="matrix" values="0 0 0 0 0 0 0 0 0 0 0 0 0 0 0 0 0 0 127 0" result="hardAlpha"/>
<feOffset dy="4"/>
<feGaussianBlur stdDeviation="2"/>
<feComposite in2="hardAlpha" operator="out"/>
<feColorMatrix type="matrix" values="0 0 0 0 0 0 0 0 0 0 0 0 0 0 0 0 0 0 0.25 0"/>
<feBlend mode="normal" in2="effect1_backgroundBlur_2010_76" result="effect2_dropShadow_2010_76"/>
<feBlend mode="normal" in="SourceGraphic" in2="effect2_dropShadow_2010_76" result="shape"/>
</filter>
<filter id="filter3_bd_2010_76" x="303.228" y="435.98" width="306.81" height="476.149" filterUnits="userSpaceOnUse" color-interpolation-filters="sRGB">
<feFlood flood-opacity="0" result="BackgroundImageFix"/>
<feGaussianBlur in="BackgroundImageFix" stdDeviation="2"/>
<feComposite in2="SourceAlpha" operator="in" result="effect1_backgroundBlur_2010_76"/>
<feColorMatrix in="SourceAlpha" type="matrix" values="0 0 0 0 0 0 0 0 0 0 0 0 0 0 0 0 0 0 127 0" result="hardAlpha"/>
<feOffset dy="4"/>
<feGaussianBlur stdDeviation="2"/>
<feComposite in2="hardAlpha" operator="out"/>
<feColorMatrix type="matrix" values="0 0 0 0 0 0 0 0 0 0 0 0 0 0 0 0 0 0 0.25 0"/>
<feBlend mode="normal" in2="effect1_backgroundBlur_2010_76" result="effect2_dropShadow_2010_76"/>
<feBlend mode="normal" in="SourceGraphic" in2="effect2_dropShadow_2010_76" result="shape"/>
</filter>
<filter id="filter4_bdf_2010_76" x="215.492" y="68.8743" width="482.633" height="512.149" filterUnits="userSpaceOnUse" color-interpolation-filters="sRGB">
<feFlood flood-opacity="0" result="BackgroundImageFix"/>
<feGaussianBlur in="BackgroundImageFix" stdDeviation="2"/>
<feComposite in2="SourceAlpha" operator="in" result="effect1_backgroundBlur_2010_76"/>
<feColorMatrix in="SourceAlpha" type="matrix" values="0 0 0 0 0 0 0 0 0 0 0 0 0 0 0 0 0 0 127 0" result="hardAlpha"/>
<feOffset dy="4"/>
<feGaussianBlur stdDeviation="2"/>
<feComposite in2="hardAlpha" operator="out"/>
<feColorMatrix type="matrix" values="0 0 0 0 0 0 0 0 0 0 0 0 0 0 0 0 0 0 0.25 0"/>
<feBlend mode="normal" in2="effect1_backgroundBlur_2010_76" result="effect2_dropShadow_2010_76"/>
<feBlend mode="normal" in="SourceGraphic" in2="effect2_dropShadow_2010_76" result="shape"/>
<feGaussianBlur stdDeviation="12" result="effect3_foregroundBlur_2010_76"/>
</filter>
<linearGradient id="paint0_linear_2010_76" x1="411.468" y1="29.6288" x2="411.468" y2="667.833" gradientUnits="userSpaceOnUse">
<stop stop-color="#0945A0"/>
<stop offset="0.5" stop-color="#0757D0"/>
<stop offset="1" stop-color="#88B8FF"/>
</linearGradient>
<linearGradient id="paint1_linear_2010_76" x1="560.351" y1="928.351" x2="172.62" y2="643.079" gradientUnits="userSpaceOnUse">
<stop stop-color="#0945A0"/>
<stop offset="0.5" stop-color="#0569FF"/>
<stop offset="1" stop-color="#88B8FF"/>
</linearGradient>
<linearGradient id="paint2_linear_2010_76" x1="207.211" y1="116.091" x2="670.359" y2="549.787" gradientUnits="userSpaceOnUse">
<stop stop-color="#0945A0"/>
<stop offset="0.5" stop-color="#0757D0"/>
<stop offset="1" stop-color="#88B8FF"/>
</linearGradient>
<linearGradient id="paint3_linear_2010_76" x1="-61.2404" y1="702.025" x2="658.968" y2="-177.639" gradientUnits="userSpaceOnUse">
<stop stop-color="white" stop-opacity="0.2"/>
<stop offset="1" stop-color="white" stop-opacity="0.5"/>
</linearGradient>
<linearGradient id="paint4_linear_2010_76" x1="650.859" y1="393.565" x2="173.747" y2="687.366" gradientUnits="userSpaceOnUse">
<stop stop-color="white" stop-opacity="0.2"/>
<stop offset="1" stop-color="white" stop-opacity="0.5"/>
</linearGradient>
<linearGradient id="paint5_linear_2010_76" x1="337.109" y1="393.565" x2="747.22" y2="708.924" gradientUnits="userSpaceOnUse">
<stop stop-color="white" stop-opacity="0"/>
<stop offset="1" stop-color="white"/>
</linearGradient>
<linearGradient id="paint6_linear_2010_76" x1="174.297" y1="603.438" x2="705.371" y2="127.759" gradientUnits="userSpaceOnUse">
<stop stop-color="white" stop-opacity="0.2"/>
<stop offset="1" stop-color="white" stop-opacity="0.5"/>
</linearGradient>
<linearGradient id="paint7_linear_2010_76" x1="630.662" y1="603.438" x2="208.963" y2="131.773" gradientUnits="userSpaceOnUse">
<stop stop-color="white" stop-opacity="0"/>
<stop offset="1" stop-color="white"/>
</linearGradient>
</defs>
</svg>
